<svg width="25" height="25" viewBox="0 0 25 25" fill="none" xmlns="http://www.w3.org/2000/svg">
<g clip-path="url(#clip0_645_86)">
<path d="M12.5 25C19.4036 25 25 19.4036 25 12.5C25 5.59644 19.4036 0 12.5 0C5.59644 0 0 5.59644 0 12.5C0 19.4036 5.59644 25 12.5 25Z" fill="#012169"/>
<path d="M22.1317 4.53418L12.5 10.3133L2.86834 4.53418C2.06725 5.50288 1.41713 6.58706 0.940002 7.75001L8.85667 12.5L0.940002 17.25C1.41677 18.4132 2.06661 19.4977 2.8675 20.4667L12.5 14.6867L22.1325 20.4658C22.9334 19.4969 23.5832 18.4124 24.06 17.2492L16.1433 12.4992L24.06 7.74918C23.5828 6.58652 22.9327 5.50262 22.1317 4.53418Z" fill="white"/>
<path d="M2.48999 19.9642L13.7142 13.2292L23.2075 18.9251C23.4228 18.5671 23.6199 18.1986 23.7983 17.8209L13.715 11.7709L23.2075 6.07589C22.9914 5.717 22.7589 5.37033 22.51 5.03589L11.285 11.7709L1.79166 6.07589C1.57777 6.43256 1.3811 6.80033 1.20166 7.17922L11.285 13.2292L1.79166 18.9251C2.00693 19.2829 2.24 19.6297 2.48999 19.9642Z" fill="#C8102E"/>
<path d="M15.625 0.410005C13.5775 -0.136668 11.4225 -0.136668 9.37501 0.410005V9.37501H0.410005C-0.136668 11.4225 -0.136668 13.5775 0.410005 15.625H9.37501V24.59C11.4225 25.1367 13.5775 25.1367 15.625 24.59V15.625H24.59C25.1367 13.5775 25.1367 11.4225 24.59 9.37501H15.625V0.410005Z" fill="white"/>
<path d="M14.375 0.155833C13.7548 0.0569595 13.128 0.00486815 12.5 0C11.872 0.00486815 11.2452 0.0569595 10.625 0.155833V10.625H0.155833C0.0569595 11.2452 0.00486815 11.872 0 12.5C0.00486815 13.128 0.0569595 13.7548 0.155833 14.375H10.625V24.8442C11.2452 24.943 11.872 24.9951 12.5 25C13.128 24.9951 13.7548 24.943 14.375 24.8442V14.375H24.8442C24.943 13.7548 24.9951 13.128 25 12.5C24.9951 11.872 24.943 11.2452 24.8442 10.625H14.375V0.155833Z" fill="#C8102E"/>
</g>
<defs>
<clipPath id="clip0_645_86">
<rect width="25" height="25" fill="white"/>
</clipPath>
</defs>
</svg>
